<svg width="106" height="46" viewBox="0 0 106 46" fill="none" xmlns="http://www.w3.org/2000/svg">
<g clip-path="url(#clip0_192_11)">
<path d="M3.9375 17V2.45455H7.88636V13.8182H13.767V17H3.9375ZM20.6474 17.1989C19.4826 17.1989 18.4788 16.9763 17.636 16.5312C16.7979 16.0814 16.1516 15.4375 15.6971 14.5994C15.2473 13.7566 15.0224 12.7481 15.0224 11.5739C15.0224 10.447 15.2496 9.46212 15.7042 8.61932C16.1587 7.77651 16.8003 7.12074 17.6289 6.65199C18.4575 6.18324 19.4353 5.94886 20.5621 5.94886C21.386 5.94886 22.1317 6.0767 22.7994 6.33239C23.467 6.58807 24.0375 6.95975 24.511 7.44744C24.9845 7.9304 25.3491 8.51752 25.6048 9.20881C25.8604 9.90009 25.9883 10.679 25.9883 11.5455V12.4545H16.244V10.2955H22.3803C22.3756 9.98295 22.2951 9.70833 22.1388 9.47159C21.9873 9.23011 21.7814 9.04309 21.521 8.91051C21.2653 8.7732 20.9741 8.70455 20.6474 8.70455C20.3301 8.70455 20.0389 8.7732 19.7738 8.91051C19.5086 9.04309 19.2956 9.22775 19.1346 9.46449C18.9783 9.70123 18.8955 9.97822 18.886 10.2955V12.625C18.886 12.9754 18.9594 13.2879 19.1062 13.5625C19.253 13.8371 19.4637 14.0526 19.7383 14.2088C20.0129 14.3651 20.3443 14.4432 20.7326 14.4432C21.0025 14.4432 21.2487 14.4053 21.4712 14.3295C21.6985 14.2538 21.8926 14.1449 22.0536 14.0028C22.2146 13.8561 22.333 13.6809 22.4087 13.4773H25.9883C25.8652 14.2348 25.574 14.893 25.1147 15.4517C24.6554 16.0057 24.047 16.4366 23.2894 16.7443C22.5366 17.0473 21.6559 17.1989 20.6474 17.1989ZM37.5597 9.64205H33.9517C33.9328 9.41951 33.8546 9.22775 33.7173 9.06676C33.58 8.90578 33.4025 8.78267 33.1847 8.69744C32.9716 8.60748 32.7348 8.5625 32.4744 8.5625C32.1383 8.5625 31.8494 8.62405 31.608 8.74716C31.3665 8.87027 31.2481 9.04545 31.2528 9.27273C31.2481 9.43371 31.3168 9.58286 31.4588 9.72017C31.6056 9.85748 31.8873 9.96402 32.304 10.0398L34.5199 10.4375C35.6373 10.6411 36.4683 10.9844 37.0128 11.4673C37.562 11.9455 37.839 12.5871 37.8438 13.392C37.839 14.1686 37.607 14.8433 37.1477 15.4162C36.6932 15.9844 36.0705 16.4247 35.2798 16.7372C34.4938 17.045 33.5966 17.1989 32.5881 17.1989C30.9214 17.1989 29.617 16.858 28.6747 16.1761C27.7372 15.4943 27.214 14.5947 27.1051 13.4773H30.9972C31.0492 13.8229 31.2197 14.0904 31.5085 14.2798C31.8021 14.4645 32.1714 14.5568 32.6165 14.5568C32.9763 14.5568 33.2723 14.4953 33.5043 14.3722C33.741 14.2491 33.8617 14.0739 33.8665 13.8466C33.8617 13.6383 33.7576 13.4725 33.554 13.3494C33.3551 13.2263 33.0426 13.1269 32.6165 13.0511L30.6847 12.7102C29.572 12.5161 28.7386 12.1468 28.1847 11.6023C27.6307 11.0578 27.3561 10.357 27.3608 9.5C27.3561 8.74242 27.5549 8.10085 27.9574 7.57528C28.3646 7.04498 28.9446 6.64252 29.6974 6.3679C30.455 6.08854 31.3523 5.94886 32.3892 5.94886C33.9659 5.94886 35.2088 6.27557 36.1179 6.92898C37.0317 7.58239 37.5123 8.48674 37.5597 9.64205ZM43.2663 2.45455V17H39.3459V2.45455H43.2663ZM45.2638 17V6.09091H49.1843V17H45.2638ZM47.2241 4.95455C46.6938 4.95455 46.2392 4.77936 45.8604 4.42898C45.4817 4.0786 45.2923 3.6572 45.2923 3.16477C45.2923 2.67235 45.4817 2.25095 45.8604 1.90057C46.2392 1.55019 46.6938 1.375 47.2241 1.375C47.7591 1.375 48.2137 1.55019 48.5877 1.90057C48.9665 2.25095 49.1559 2.67235 49.1559 3.16477C49.1559 3.6572 48.9665 4.0786 48.5877 4.42898C48.2137 4.77936 47.7591 4.95455 47.2241 4.95455ZM56.4091 17.1989C55.2443 17.1989 54.2405 16.9763 53.3977 16.5312C52.5597 16.0814 51.9134 15.4375 51.4588 14.5994C51.009 13.7566 50.7841 12.7481 50.7841 11.5739C50.7841 10.447 51.0114 9.46212 51.4659 8.61932C51.9205 7.77651 52.562 7.12074 53.3906 6.65199C54.2192 6.18324 55.197 5.94886 56.3239 5.94886C57.1477 5.94886 57.8935 6.0767 58.5611 6.33239C59.2287 6.58807 59.7992 6.95975 60.2727 7.44744C60.7462 7.9304 61.1108 8.51752 61.3665 9.20881C61.6222 9.90009 61.75 10.679 61.75 11.5455V12.4545H52.0057V10.2955H58.142C58.1373 9.98295 58.0568 9.70833 57.9006 9.47159C57.7491 9.23011 57.5431 9.04309 57.2827 8.91051C57.027 8.7732 56.7358 8.70455 56.4091 8.70455C56.0919 8.70455 55.8007 8.7732 55.5355 8.91051C55.2704 9.04309 55.0573 9.22775 54.8963 9.46449C54.7401 9.70123 54.6572 9.97822 54.6477 10.2955V12.625C54.6477 12.9754 54.7211 13.2879 54.8679 13.5625C55.0147 13.8371 55.2254 14.0526 55.5 14.2088C55.7746 14.3651 56.1061 14.4432 56.4943 14.4432C56.7642 14.4432 57.0104 14.4053 57.233 14.3295C57.4602 14.2538 57.6544 14.1449 57.8153 14.0028C57.9763 13.8561 58.0947 13.6809 58.1705 13.4773H61.75C61.6269 14.2348 61.3357 14.893 60.8764 15.4517C60.4171 16.0057 59.8087 16.4366 59.0511 16.7443C58.2983 17.0473 57.4176 17.1989 56.4091 17.1989ZM37.4389 31.9091H33.4332C33.4048 31.5777 33.3291 31.277 33.206 31.0071C33.0876 30.7372 32.9219 30.5052 32.7088 30.3111C32.5005 30.1122 32.2472 29.9607 31.9489 29.8565C31.6506 29.7476 31.312 29.6932 30.9332 29.6932C30.2704 29.6932 29.7093 29.8542 29.25 30.1761C28.7955 30.4981 28.4498 30.9598 28.2131 31.5611C27.9811 32.1624 27.8651 32.8845 27.8651 33.7273C27.8651 34.6174 27.9834 35.3632 28.2202 35.9645C28.4616 36.5611 28.8097 37.0109 29.2642 37.3139C29.7188 37.6122 30.2656 37.7614 30.9048 37.7614C31.2694 37.7614 31.5961 37.7164 31.8849 37.6264C32.1738 37.5317 32.4247 37.3968 32.6378 37.2216C32.8509 37.0464 33.0237 36.8357 33.1562 36.5895C33.2936 36.3385 33.3859 36.0568 33.4332 35.7443L37.4389 35.7727C37.3916 36.3883 37.2188 37.0156 36.9205 37.6548C36.6222 38.2893 36.1984 38.8764 35.6491 39.4162C35.1046 39.9512 34.4299 40.3821 33.625 40.7088C32.8201 41.0355 31.8849 41.1989 30.8196 41.1989C29.4844 41.1989 28.2865 40.9124 27.2259 40.3395C26.17 39.7666 25.3343 38.9238 24.7188 37.8111C24.108 36.6984 23.8026 35.3371 23.8026 33.7273C23.8026 32.108 24.1151 30.7443 24.7401 29.6364C25.3651 28.5237 26.2079 27.6832 27.2685 27.1151C28.3291 26.5421 29.5128 26.2557 30.8196 26.2557C31.7382 26.2557 32.5833 26.3812 33.3551 26.6321C34.1269 26.883 34.804 27.25 35.3864 27.733C35.9688 28.2112 36.4375 28.8007 36.7926 29.5014C37.1477 30.2022 37.3632 31.0047 37.4389 31.9091ZM43.2077 34.8636V41H39.2873V26.4545H43.0657V32.1648H43.1793C43.4255 31.4687 43.8351 30.9266 44.408 30.5384C44.9809 30.1454 45.6699 29.9489 46.4748 29.9489C47.2466 29.9489 47.9165 30.1241 48.4847 30.4744C49.0576 30.8248 49.5004 31.3078 49.8129 31.9233C50.1301 32.5388 50.2863 33.2443 50.2816 34.0398V41H46.3612V34.8636C46.3659 34.3239 46.2309 33.9001 45.9563 33.5923C45.6864 33.2846 45.3005 33.1307 44.7987 33.1307C44.4814 33.1307 44.2021 33.2017 43.9606 33.3438C43.7238 33.4811 43.5392 33.6799 43.4066 33.9403C43.2788 34.196 43.2125 34.5038 43.2077 34.8636ZM52.217 41V30.0909H56.1374V41H52.217ZM54.1772 28.9545C53.6469 28.9545 53.1924 28.7794 52.8136 28.429C52.4348 28.0786 52.2454 27.6572 52.2454 27.1648C52.2454 26.6723 52.4348 26.2509 52.8136 25.9006C53.1924 25.5502 53.6469 25.375 54.1772 25.375C54.7122 25.375 55.1668 25.5502 55.5408 25.9006C55.9196 26.2509 56.109 26.6723 56.109 27.1648C56.109 27.6572 55.9196 28.0786 55.5408 28.429C55.1668 28.7794 54.7122 28.9545 54.1772 28.9545ZM62.0554 34.8636V41H58.1349V26.4545H61.9134V32.1648H62.027C62.2732 31.4687 62.6828 30.9266 63.2557 30.5384C63.8286 30.1454 64.5175 29.9489 65.3224 29.9489C66.0942 29.9489 66.7642 30.1241 67.3324 30.4744C67.9053 30.8248 68.348 31.3078 68.6605 31.9233C68.9777 32.5388 69.134 33.2443 69.1293 34.0398V41H65.2088V34.8636C65.2135 34.3239 65.0786 33.9001 64.804 33.5923C64.5341 33.2846 64.1482 33.1307 63.6463 33.1307C63.3291 33.1307 63.0497 33.2017 62.8082 33.3438C62.5715 33.4811 62.3868 33.6799 62.2543 33.9403C62.1264 34.196 62.0601 34.5038 62.0554 34.8636ZM72.9964 41L70.2692 30.0909H74.1896L75.4396 36.7386H75.5249L76.9169 30.0909H80.7237L82.1726 36.6818H82.2578L83.451 30.0909H87.3714L84.6442 41H80.4112L78.8771 35.1477H78.7635L77.2294 41H72.9964ZM91.6044 41.1705C90.9084 41.1705 90.2929 41.0568 89.7578 40.8295C89.2275 40.5975 88.8108 40.2472 88.5078 39.7784C88.2048 39.3097 88.0533 38.7131 88.0533 37.9886C88.0533 37.392 88.1551 36.883 88.3587 36.4616C88.5623 36.0355 88.8464 35.6875 89.2109 35.4176C89.5755 35.1477 89.9993 34.9418 90.4822 34.7997C90.9699 34.6577 91.4955 34.5653 92.0589 34.5227C92.6697 34.4754 93.1598 34.4186 93.5291 34.3523C93.9032 34.2812 94.1731 34.1842 94.3388 34.0611C94.5045 33.9332 94.5874 33.7652 94.5874 33.5568V33.5284C94.5874 33.2443 94.4785 33.0265 94.2607 32.875C94.0429 32.7235 93.7635 32.6477 93.4226 32.6477C93.0485 32.6477 92.7431 32.7306 92.5064 32.8963C92.2744 33.0573 92.1347 33.3059 92.0874 33.642H88.4794C88.5268 32.9792 88.7375 32.3684 89.1115 31.8097C89.4903 31.2462 90.0419 30.7964 90.7663 30.4602C91.4908 30.1193 92.3951 29.9489 93.4794 29.9489C94.2607 29.9489 94.9614 30.0412 95.5817 30.2259C96.2019 30.4058 96.7299 30.6591 97.1655 30.9858C97.6011 31.3078 97.9325 31.6866 98.1598 32.1222C98.3918 32.553 98.5078 33.0218 98.5078 33.5284V41H94.843V39.4659H94.7578C94.54 39.8731 94.2749 40.2022 93.9624 40.4531C93.6546 40.7041 93.3018 40.8864 92.9041 41C92.5111 41.1136 92.0779 41.1705 91.6044 41.1705ZM92.8828 38.6989C93.1811 38.6989 93.4605 38.6373 93.7209 38.5142C93.986 38.3911 94.2015 38.2135 94.3672 37.9815C94.5329 37.7495 94.6158 37.4678 94.6158 37.1364V36.2273C94.5116 36.2699 94.4003 36.3101 94.282 36.348C94.1683 36.3859 94.0452 36.4214 93.9126 36.4545C93.7848 36.4877 93.6475 36.5185 93.5007 36.5469C93.3587 36.5753 93.2095 36.6013 93.0533 36.625C92.7502 36.6723 92.5017 36.7505 92.3075 36.8594C92.1181 36.9635 91.9761 37.0938 91.8814 37.25C91.7914 37.4015 91.7464 37.572 91.7464 37.7614C91.7464 38.0644 91.853 38.2964 92.0661 38.4574C92.2791 38.6184 92.5514 38.6989 92.8828 38.6989ZM100.381 41V30.0909H104.301V41H100.381ZM102.341 28.9545C101.811 28.9545 101.356 28.7794 100.978 28.429C100.599 28.0786 100.409 27.6572 100.409 27.1648C100.409 26.6723 100.599 26.2509 100.978 25.9006C101.356 25.5502 101.811 25.375 102.341 25.375C102.876 25.375 103.331 25.5502 103.705 25.9006C104.084 26.2509 104.273 26.6723 104.273 27.1648C104.273 27.6572 104.084 28.0786 103.705 28.429C103.331 28.7794 102.876 28.9545 102.341 28.9545Z" fill="black"/>
<ellipse cx="8.5" cy="35" rx="5.5" ry="6" fill="black"/>
</g>
<defs>
<clipPath id="clip0_192_11">
<rect width="106" height="46" fill="white"/>
</clipPath>
</defs>
</svg>
